<svg width="1024px" height="288px" viewBox="0 0 1024 288" version="1.1" xmlns="http://www.w3.org/2000/svg" xmlns:xlink="http://www.w3.org/1999/xlink">
    <title>wave</title>
    <g id="Symbols" stroke="none" stroke-width="1" fill="none" fill-rule="evenodd">
        <g id="Footer" fill="#A855F7" fill-rule="nonzero">
            <g id="wave">
                <path d="M0,32 L28.4444444,48 C56.8888889,64 113.777778,96 170.666667,90.7 C227.555556,85 284.444444,43 341.333333,32 C398.222222,21 455.111111,43 512,85.3 C568.888889,128 625.777778,192 682.666667,202.7 C739.555556,213 796.444444,171 853.333333,128 C910.222222,85 967.111111,43 995.555556,21.3 L1024,0 L1024,288 L995.555556,288 C967.111111,288 910.222222,288 853.333333,288 C796.444444,288 739.555556,288 682.666667,288 C625.777778,288 568.888889,288 512,288 C455.111111,288 398.222222,288 341.333333,288 C284.444444,288 227.555556,288 170.666667,288 C113.777778,288 56.8888889,288 28.4444444,288 L0,288 L0,32 Z" id="Path"></path>
            </g>
        </g>
    </g>
</svg>
