<?xml version="1.0" encoding="UTF-8"?>
<svg width="302px" height="227px" viewBox="0 0 302 227" version="1.1" xmlns="http://www.w3.org/2000/svg" xmlns:xlink="http://www.w3.org/1999/xlink">
    <title>upload</title>
    <defs>
        <linearGradient x1="44.1046792%" y1="50.0001459%" x2="168.92334%" y2="50.0001459%" id="linearGradient-1">
            <stop stop-color="#FFF0D5" offset="0%"></stop>
            <stop stop-color="#FFDFFF" offset="44.7540497%"></stop>
            <stop stop-color="#D9CEFF" offset="100%"></stop>
        </linearGradient>
    </defs>
    <g id="UI" stroke="none" stroke-width="1" fill="none" fill-rule="evenodd">
        <g id="HOME" transform="translate(-591.000000, -195.000000)" fill-rule="nonzero">
            <g id="upload" transform="translate(591.000000, 195.000000)">
                <path d="M298.240451,134.582578 C291.264953,114.155284 275.744971,99.0753255 257.03865,91.9679729 C247.347509,88.28563 240.908769,79.0682636 240.766617,68.6964394 C240.763668,68.4697973 240.759539,68.2425651 240.75423,68.0153328 C239.865335,29.8981557 208.024952,-0.644219634 169.927502,0.0103272901 C147.457975,0.396327009 127.583763,11.4339122 115.128022,28.2933648 C104.401704,42.8120301 87.7061628,51.8812528 69.6628272,51.8718094 C69.1331471,51.8718094 68.6028771,51.8771213 68.0702477,51.8889256 C31.5488612,52.6886651 0.493561442,84.0425842 0.00635009047,120.592154 C-0.51271285,159.506119 30.8563841,191.213577 69.6268467,191.213577 C99.6776417,191.213577 125.278062,172.163251 135.032316,145.47379 C137.584572,138.490382 145.149325,134.747248 152.304725,136.755154 C152.393792,136.779943 152.483448,136.805323 152.573105,136.829521 C159.119786,138.637936 163.46045,144.880035 162.924871,151.655098 C162.207031,160.734354 163.267571,170.102225 166.344788,179.274735 C178.448982,215.357446 217.772129,235.159113 253.932531,223.35189 C290.922253,211.273758 310.78113,171.30449 298.240451,134.582578 Z" id="Path" fill="url(#linearGradient-1)"></path>
                <path d="M276.436268,69.6661604 L276.436268,41.4563094 C276.436268,38.1965594 273.794946,35.5535828 270.537236,35.5535828 L237.455231,35.5535828 C234.197522,35.5535828 231.556199,38.1959692 231.556199,41.4563094 L231.556199,59.9329473 C226.156175,58.8682019 220.515494,58.6026057 214.784568,59.2530212 C214.058469,49.1473833 210.868002,39.725803 205.815986,31.581445 C209.58745,29.1403214 212.08603,24.8978658 212.08603,20.0681476 C212.08603,12.4986577 205.954009,6.36279667 198.389257,6.36279667 C193.651038,6.36279667 189.474941,8.77086831 187.01588,12.4301929 C177.505821,6.28665911 166.177862,2.71881767 154.015864,2.71881767 C121.855196,2.71881767 95.5168804,27.6512124 93.2465699,59.2530212 C64.1867132,55.9543172 37.4201709,76.1301801 32.8193858,105.319196 C30.9301146,117.307025 33.0688899,128.997977 38.2270779,139.019214 L30.4145908,139.019214 C27.9637879,139.019214 25.9771925,141.007053 25.9771925,143.459391 L25.9771925,185.097783 C25.9771925,187.55012 27.9637879,189.53796 30.4145908,189.53796 L94.340731,189.53796 C96.7915338,189.53796 98.7781293,187.55012 98.7781293,185.097783 L98.7781293,170.19843 C137.967381,172.739299 204.932399,172.071768 229.502361,168.192294 C259.476477,163.45878 279.941123,135.307951 275.210572,105.314474 C273.371438,93.6518524 267.990878,83.4317131 260.341778,75.5700674 L270.536646,75.5700674 C273.794946,75.568887 276.436268,72.9265005 276.436268,69.6661604 L276.436268,69.6661604 Z" id="Path" fill="#590BB2" opacity="0.1"></path>
                <ellipse id="Oval" fill="#590BB2" opacity="0.1" transform="translate(74.074616, 20.035818) rotate(-13.299584) translate(-74.074616, -20.035818) " cx="74.0746162" cy="20.035818" rx="13.6946862" ry="13.7023545"></ellipse>
                <path d="M275.210572,117.70896 C270.607427,88.5223057 243.841475,68.349984 214.784568,71.6480978 C212.514257,40.0468792 186.175942,15.1138943 154.015274,15.1138943 C121.854606,15.1138943 95.5162906,40.046289 93.24598,71.6480978 C64.1861233,68.3493938 37.4195811,88.5252567 32.8187959,117.714272 C28.0917841,147.707749 48.5587897,175.856808 78.5340847,180.58737 C108.222126,185.271896 199.813141,185.274847 229.502361,180.58619 C259.476477,175.853267 279.941123,147.701847 275.210572,117.70896 Z" id="Path" fill="#A855F7"></path>
                <path d="M266.164721,95.0453468 L237.454642,95.0453468 C234.198701,95.0453468 231.555609,92.4070918 231.555609,89.1426202 L231.555609,72.3268435 C245.642859,75.1008476 258.077366,83.3290159 266.164721,95.0453468 L266.164721,95.0453468 Z" id="Path" fill="#FF8736"></path>
                <path d="M220.726069,101.378929 L220.726069,181.671593 C188.099424,184.911865 119.937612,184.911865 87.3050687,181.671593 L87.3050687,101.378929 C87.3050687,100.400945 88.0972296,99.6082884 89.0746015,99.6082884 L218.956536,99.6082884 C219.933318,99.6082884 220.726069,100.400945 220.726069,101.378929 Z" id="Path" fill="#FFBE92"></path>
                <path d="M196.741232,110.309452 L192.723803,104.923752 L115.307335,104.923752 L111.289906,110.309452 C107.243574,115.740008 111.112952,123.460592 117.879056,123.460592 L134.307398,123.460592 L134.307398,183.932701 C147.232065,184.156982 160.804971,184.156982 173.72374,183.932701 L173.72374,123.460592 L190.152082,123.460592 C196.918185,123.460592 200.787564,115.740008 196.741232,110.309452 L196.741232,110.309452 Z" id="Path" fill="#FFA052"></path>
                <path d="M117.879056,116.376848 L134.304448,116.376848 L134.304448,213.37905 C134.304448,216.6388 136.945181,219.281776 140.203481,219.281776 L167.827657,219.281776 C171.085366,219.281776 173.726689,216.6388 173.726689,213.37905 L173.726689,116.376848 L190.152082,116.376848 C196.919365,116.376848 200.789333,108.653903 196.741822,103.227478 L160.605604,54.7821529 C157.317222,50.3738472 150.715095,50.3738472 147.426714,54.7821529 L111.290495,103.227478 C107.241804,108.654493 111.111773,116.376848 117.879056,116.376848 L117.879056,116.376848 Z" id="Path" fill="#FFE783"></path>
                <path d="M94.340731,201.932446 L30.4145908,201.932446 C27.9637879,201.932446 25.9771925,199.944607 25.9771925,197.492269 L25.9771925,155.853877 C25.9771925,153.40154 27.9637879,151.4137 30.4145908,151.4137 L94.340731,151.4137 C96.7915338,151.4137 98.7781293,153.40154 98.7781293,155.853877 L98.7781293,197.492269 C98.7781293,199.944607 96.7915338,201.932446 94.340731,201.932446 Z" id="Path" fill="#F5F4F9"></path>
                <path d="M48.5841531,186.729723 C47.8291524,186.729723 47.0741518,186.441699 46.4984638,185.865061 L39.3985085,178.760659 C38.2465427,177.607972 38.2465427,175.738765 39.3985085,174.586668 L46.4984638,167.482267 C47.6492499,166.33017 49.5184663,166.33017 50.6692525,167.482267 C51.8212183,168.634954 51.8212183,170.50416 50.6692525,171.656257 L45.6555763,176.673664 L50.6692525,181.69107 C51.8212183,182.843757 51.8212183,184.712963 50.6692525,185.865061 C50.0941543,186.441109 49.3391537,186.729723 48.5841531,186.729723 Z" id="Path" fill="#C182F9"></path>
                <path d="M76.1711687,166.617604 C76.9261693,166.617604 77.6811699,166.905628 78.2568579,167.482267 L85.3568132,174.586668 C86.508779,175.739355 86.508779,177.608562 85.3568132,178.760659 L78.2568579,185.865061 C77.105482,187.017158 75.2368554,187.017158 74.0860692,185.865061 C72.9341034,184.712373 72.9341034,182.843167 74.0860692,181.69107 L79.0997454,176.673664 L74.0860692,171.656257 C72.9341034,170.50357 72.9341034,168.634364 74.0860692,167.482267 C74.6611674,166.905628 75.416168,166.617604 76.1711687,166.617604 Z" id="Path" fill="#C182F9"></path>
                <path d="M58.3655403,186.730314 C57.8742,186.730314 57.3763715,186.606959 56.9180625,186.348445 C55.4988972,185.546935 54.9987093,183.746784 55.7997178,182.32673 L63.8180605,168.117927 C64.619069,166.698463 66.4186838,166.197962 67.8366694,166.998882 C69.2558347,167.800392 69.7560226,169.600543 68.9550141,171.020597 L60.9366714,185.2294 C60.3946045,186.190268 59.3948185,186.730314 58.3655403,186.730314 L58.3655403,186.730314 Z" id="Path" fill="#C182F9"></path>
                <path d="M270.537236,87.9645538 L237.455231,87.9645538 C234.197522,87.9645538 231.556199,85.3221673 231.556199,82.0618272 L231.556199,53.8519762 C231.556199,50.5922263 234.196932,47.9492496 237.455231,47.9492496 L270.537236,47.9492496 C273.794946,47.9492496 276.436268,50.591636 276.436268,53.8519762 L276.436268,82.0618272 C276.436268,85.3215771 273.794946,87.9645538 270.537236,87.9645538 Z" id="Path" fill="#FFBE92"></path>
                <path d="M249.984703,78.0123714 C249.493363,78.0123714 248.995534,77.8890168 248.537815,77.6305032 C247.11924,76.8289931 246.618462,75.0288415 247.41947,73.6093777 L255.437223,59.401755 C256.238232,57.9828814 258.037846,57.48179 259.455242,58.28271 C260.873818,59.0842201 261.374595,60.8843717 260.573587,62.3038355 L252.555834,76.5114582 C252.013177,77.472326 251.013981,78.0123714 249.984703,78.0123714 L249.984703,78.0123714 Z" id="Path" fill="#F5F4F9"></path>
                <g id="Group" transform="translate(60.382218, 18.757873)" fill="#FFBE92">
                    <ellipse id="Oval" cx="115.919731" cy="165.344219" rx="13.6967733" ry="13.7053509"></ellipse>
                    <ellipse id="Oval" cx="13.6967733" cy="13.7053509" rx="13.6967733" ry="13.7053509"></ellipse>
                    <ellipse id="Oval" cx="138.007039" cy="13.7053509" rx="13.6967733" ry="13.7053509"></ellipse>
                </g>
                <path d="M279.38549,82.0618272 L279.38549,53.8519762 C279.38549,48.9703192 275.416428,44.9981814 270.537826,44.9981814 L262.119569,44.9981814 C260.491009,44.9981814 259.170347,46.3190795 259.170347,47.9492496 C259.170347,49.5794197 260.491009,50.9003178 262.119569,50.9003178 L270.537826,50.9003178 C272.164026,50.9003178 273.487047,52.224167 273.487047,53.8519762 L273.487047,82.0618272 C273.487047,83.6896364 272.164026,85.0134856 270.537826,85.0134856 L237.455821,85.0134856 C235.829621,85.0134856 234.50601,83.6896364 234.50601,82.0618272 L234.50601,53.8519762 C234.50601,52.224167 235.829621,50.9003178 237.455821,50.9003178 L245.874078,50.9003178 C247.502638,50.9003178 248.8233,49.5794197 248.8233,47.9492496 C248.8233,46.3190795 247.502638,44.9981814 245.874078,44.9981814 L237.455821,44.9981814 C232.577219,44.9981814 228.607568,48.969729 228.607568,53.8519762 L228.607568,68.8540264 C224.913963,68.3617882 221.17612,68.2242685 217.441226,68.4544518 C216.44262,60.1241765 213.785961,51.9939836 209.672387,44.695992 C212.967257,41.6504896 215.035841,37.294713 215.035841,32.4638144 C215.035841,23.2795 207.568413,15.8073953 198.389847,15.8073953 C193.665194,15.8073953 189.397081,17.7905131 186.364102,20.9652723 C176.585074,15.2077382 165.434069,12.1634163 154.015864,12.1634163 C137.762705,12.1634163 122.276345,18.2756687 110.408678,29.3746362 C99.3337625,39.7328855 92.3653426,53.5149642 90.5893215,68.4532714 C60.9231049,66.6053125 34.590688,87.5295663 29.906145,117.255086 C28.2280381,127.904901 29.516258,138.614918 33.6127263,148.463813 L30.4151806,148.463813 C26.342306,148.463813 23.028561,151.779043 23.028561,155.854468 L23.028561,197.492859 C23.028561,201.568285 26.342306,204.883515 30.4151806,204.883515 L94.3413208,204.883515 C98.4141954,204.883515 101.72794,201.568285 101.72794,197.492859 L101.72794,185.731672 C110.366799,186.236305 120.519198,186.612861 131.358176,186.83065 L131.355817,213.37964 C131.355817,218.261297 135.324879,222.233435 140.203481,222.233435 L167.827657,222.233435 C172.706258,222.233435 176.67591,218.261887 176.67591,213.37964 L176.67591,200.749068 C184.916624,200.566102 191.696294,194.364137 192.789865,186.371464 C209.116164,185.756461 221.948226,184.767853 229.96244,183.501845 C245.237636,181.090232 258.659542,172.869737 267.75612,160.356617 C276.852698,147.842908 280.535096,132.533356 278.124403,117.249184 C276.597886,107.57027 272.706683,98.5718733 266.794674,90.915622 L270.537826,90.915622 C275.416428,90.9150318 279.38549,86.9434842 279.38549,82.0618272 L279.38549,82.0618272 Z M198.389257,21.7095317 C204.315422,21.7095317 209.136809,26.533938 209.136809,32.4638144 C209.136809,38.3936908 204.315422,43.2180971 198.389257,43.2180971 C192.463092,43.2180971 187.641705,38.3936908 187.641705,32.4638144 C187.641705,26.533938 192.463092,21.7095317 198.389257,21.7095317 Z M95.828908,197.492859 C95.828908,198.313847 95.1612043,198.981378 94.340731,198.981378 L30.4145908,198.981378 C29.5941174,198.981378 28.9264137,198.313256 28.9264137,197.492859 L28.9264137,155.854468 C28.9264137,155.033481 29.5941174,154.365949 30.4145908,154.365949 L94.340731,154.365949 C95.1612043,154.365949 95.828908,155.034071 95.828908,155.854468 L95.828908,197.492859 Z M176.301949,194.856375 C170.375784,194.856375 165.554397,190.031969 165.554397,184.102092 C165.554397,178.171626 170.375784,173.347219 176.301949,173.347219 C182.228114,173.347219 187.049501,178.171626 187.049501,184.102092 C187.049501,190.031969 182.228114,194.856375 176.301949,194.856375 Z M272.297331,118.168737 C274.46206,131.896516 271.155393,145.645542 262.98546,156.88439 C254.815527,168.123239 242.76088,175.505631 229.042283,177.672305 C221.249261,178.9029 208.650187,179.8679 192.54508,180.474049 C190.911211,173.146547 184.442389,167.628049 176.67532,167.455117 L176.67532,119.327916 L190.151492,119.327916 C194.404859,119.327916 198.231768,116.964701 200.138145,113.160184 C202.044522,109.356257 201.648736,104.873584 199.104738,101.46274 L162.96852,53.0174141 C160.839182,50.1631409 157.575574,48.5258883 154.015864,48.5258883 C150.455564,48.5258883 147.192545,50.1631409 145.062618,53.0174141 L108.9264,101.46333 C106.382401,104.873584 105.986026,109.356257 107.892992,113.160184 C109.799369,116.964701 113.626279,119.327916 117.879645,119.327916 L131.355817,119.327916 L131.355817,167.676447 C131.355817,169.306617 132.676478,170.627515 134.305038,170.627515 C135.933598,170.627515 137.25426,169.306617 137.25426,167.676447 L137.25426,116.376848 C137.25426,114.746678 135.933598,113.42578 134.305038,113.42578 L117.879645,113.42578 C115.841144,113.42578 114.079279,112.337426 113.16561,110.514256 C112.251941,108.691086 112.434203,106.627109 113.653411,104.992807 L149.78963,56.5480721 C150.794724,55.2006143 152.335397,54.4274345 154.015864,54.4274345 C155.69633,54.4274345 157.236413,55.2006143 158.242098,56.5474819 L194.378316,104.992807 C195.597524,106.627699 195.779786,108.691676 194.866117,110.514256 C193.952448,112.336836 192.190584,113.42578 190.152082,113.42578 L173.726689,113.42578 C172.098129,113.42578 170.777468,114.746678 170.777468,116.376848 L170.777468,168.392376 C164.306876,170.677683 159.656544,176.855449 159.656544,184.102092 C159.656544,191.348735 164.307466,197.525911 170.777468,199.811219 L170.777468,213.37905 C170.777468,215.006859 169.453857,216.330708 167.827657,216.330708 L140.203481,216.330708 C138.57728,216.330708 137.25426,215.006859 137.25426,213.37905 L137.257209,183.933291 C137.257209,182.323188 135.967809,181.010553 134.358714,180.982813 C122.363641,180.775058 111.123569,180.373123 101.72794,179.818322 L101.72794,155.853877 C101.72794,151.778452 98.4141954,148.463222 94.3413208,148.463222 L40.0650325,148.463222 C35.5993217,139.011541 34.094629,128.561809 35.7320367,118.174639 C40.0803685,90.5833317 65.1941672,71.4373915 92.9133079,74.5802791 C93.7137265,74.6723525 94.5123756,74.4321355 95.1299426,73.9186496 C95.7480993,73.4051638 96.1297286,72.6614946 96.1875333,71.8599845 C97.2356865,57.2687229 103.716305,43.7121059 114.435545,33.686737 C125.206691,23.6135609 139.262679,18.0655527 154.015274,18.0655527 C164.272665,18.0655527 174.29176,20.7687311 183.098134,25.887654 C182.227524,27.9061847 181.743262,30.1289292 181.743262,32.4632242 C181.743262,41.6475386 189.21069,49.1196432 198.389257,49.1196432 C200.618868,49.1196432 202.746436,48.6758026 204.691743,47.8760631 C208.774055,55.2159599 211.240783,63.4689172 211.843604,71.8593943 C211.901409,72.6609044 212.283038,73.4045736 212.901195,73.9180594 C213.518762,74.4309551 214.316821,74.6694014 215.11783,74.5796889 C219.62483,74.0697443 224.156013,74.1529645 228.607568,74.8157744 L228.607568,82.061237 C228.607568,86.942894 232.57663,90.9150318 237.455821,90.9150318 L259.074793,90.9150318 C266.105736,98.4921944 270.678799,107.904922 272.297331,118.168737 L272.297331,118.168737 Z" id="Shape" fill="#590BB2"></path>
                <path d="M74.0789911,49.1196432 C83.2575575,49.1196432 90.7249857,41.6475386 90.7249857,32.4632242 C90.7249857,23.2789097 83.2575575,15.8068051 74.0789911,15.8068051 C64.9004247,15.8068051 57.4329965,23.2789097 57.4329965,32.4632242 C57.4329965,41.6475386 64.9004247,49.1196432 74.0789911,49.1196432 L74.0789911,49.1196432 Z M74.0789911,21.7095317 C80.0051563,21.7095317 84.8265432,26.533938 84.8265432,32.4638144 C84.8265432,38.3936908 80.0051563,43.2180971 74.0789911,43.2180971 C68.1528259,43.2180971 63.331439,38.3936908 63.331439,32.4638144 C63.331439,26.533938 68.1528259,21.7095317 74.0789911,21.7095317 L74.0789911,21.7095317 Z" id="Shape" fill="#590BB2"></path>
                <ellipse id="Oval" fill="#F5F4F9" cx="189.998722" cy="150.441618" rx="3.29722936" ry="3.29929423"></ellipse>
                <ellipse id="Oval" fill="#F5F4F9" cx="189.998722" cy="140.459925" rx="3.29722936" ry="3.29929423"></ellipse>
                <ellipse id="Oval" fill="#F5F4F9" cx="189.998722" cy="130.478823" rx="3.29722936" ry="3.29929423"></ellipse>
                <path d="M50.3354006,68.3724121 C49.5804,68.3724121 48.8259892,68.0843878 48.2497114,67.5077491 L41.7649637,61.0183502 C41.2116898,60.4647298 40.9014317,59.7145682 40.9014317,58.931945 C40.9014317,58.1493217 41.2122796,57.3985699 41.7655535,56.8449495 L48.250891,50.3561408 C49.402267,49.204634 51.2697139,49.204634 52.4210899,50.3561408 L58.9064274,56.8449495 C59.4597013,57.3985699 59.7705493,58.1493217 59.7705493,58.931945 C59.7705493,59.7145682 59.4597013,60.46532 58.9070173,61.0183502 L52.4216797,67.5077491 C51.8448121,68.0843878 51.0904013,68.3724121 50.3354006,68.3724121 L50.3354006,68.3724121 Z M48.0214416,58.931945 L50.3359905,61.2479433 L52.6505393,58.931945 L50.3359905,56.6159466 L48.0214416,58.931945 Z" id="Shape" fill="#FFA052"></path>
                <path d="M32.0490492,43.9405186 C31.2669157,43.9405186 30.5166338,43.6300662 29.9633599,43.0758556 L23.4780224,36.5864566 C22.3260565,35.4343596 22.3260565,33.5657432 23.4780224,32.4136462 L29.9633599,25.9242473 C30.5166338,25.3706269 31.2663258,25.0595843 32.0490492,25.0595843 C32.8317725,25.0595843 33.5814645,25.3700367 34.1347384,25.9242473 L40.620076,32.4136462 C41.7720418,33.5657432 41.7720418,35.4343596 40.620076,36.5864566 L34.1347384,43.0758556 C33.5814645,43.629476 32.8311826,43.9405186 32.0490492,43.9405186 Z M29.7345003,34.5000514 L32.0490492,36.8160497 L34.363598,34.5000514 L32.0490492,32.1840531 L29.7345003,34.5000514 Z" id="Shape" fill="#FFE783"></path>
                <path d="M113.454044,227 C111.825484,227 110.504823,225.679102 110.504823,224.048932 C110.504823,222.090603 108.912243,220.496436 106.95455,220.496436 C105.32599,220.496436 104.005329,219.175538 104.005329,217.545368 C104.005329,215.915198 105.32599,214.5943 106.95455,214.5943 C108.912243,214.5943 110.504823,213.000723 110.504823,211.041213 C110.504823,209.411043 111.825484,208.090145 113.454044,208.090145 C115.082604,208.090145 116.403265,209.411043 116.403265,211.041213 C116.403265,213.000133 117.995845,214.5943 119.953538,214.5943 C121.582098,214.5943 122.902759,215.915198 122.902759,217.545368 C122.902759,219.175538 121.582098,220.496436 119.953538,220.496436 C117.995845,220.496436 116.403265,222.090013 116.403265,224.048932 C116.403265,225.679102 115.082604,227 113.454044,227 Z" id="Path" fill="#C182F9"></path>
                <path d="M248.86046,24.5685265 C247.2319,24.5685265 245.911239,23.2476284 245.911239,21.6174584 C245.911239,19.6591295 244.318659,18.0649625 242.360966,18.0649625 C240.732406,18.0649625 239.411745,16.7440643 239.411745,15.1138943 C239.411745,13.4837242 240.732406,12.1628261 242.360966,12.1628261 C244.318659,12.1628261 245.911239,10.5692493 245.911239,8.60973999 C245.911239,6.97956992 247.2319,5.6586718 248.86046,5.6586718 C250.48902,5.6586718 251.809681,6.97956992 251.809681,8.60973999 C251.809681,10.5686591 253.402261,12.1628261 255.359954,12.1628261 C256.988514,12.1628261 258.309175,13.4837242 258.309175,15.1138943 C258.309175,16.7440643 256.988514,18.0649625 255.359954,18.0649625 C253.402261,18.0649625 251.809681,19.6585393 251.809681,21.6174584 C251.809681,23.2476284 250.48902,24.5685265 248.86046,24.5685265 Z" id="Path" fill="#FFA052"></path>
            </g>
        </g>
    </g>
</svg>